<svg xmlns="http://www.w3.org/2000/svg" width="800px" height="800px" viewBox="0 0 64 64" fill="none">
  <path d="m47.781 31.608-1.343-.832a18.57 18.57 0 0 0-.038-.391l1.154-1.077a.46.46 0 0 0-.153-.771l-1.476-.552a16.798 16.798 0 0 0-.115-.381l.92-1.279a.462.462 0 0 0-.3-.727l-1.557-.253c-.06-.118-.123-.234-.187-.35l.654-1.435a.46.46 0 0 0-.437-.654l-1.579.055a12.482 12.482 0 0 0-.25-.302l.363-1.539a.461.461 0 0 0-.556-.556l-1.538.362c-.1-.084-.2-.167-.303-.25l.055-1.578a.46.46 0 0 0-.654-.437l-1.435.654a16.712 16.712 0 0 0-.35-.188l-.253-1.556a.462.462 0 0 0-.726-.301l-1.28.92a14.31 14.31 0 0 0-.38-.115l-.552-1.476a.461.461 0 0 0-.771-.154l-1.077 1.156c-.13-.014-.26-.028-.391-.038l-.832-1.344a.462.462 0 0 0-.786 0l-.832 1.344c-.13.01-.261.024-.391.038l-1.077-1.155a.464.464 0 0 0-.771.153l-.552 1.476c-.128.037-.255.076-.38.116l-1.28-.921a.46.46 0 0 0-.727.3l-.254 1.557c-.117.061-.233.124-.35.188l-1.434-.654a.46.46 0 0 0-.654.436l.055 1.58c-.102.082-.203.165-.303.25l-1.538-.363a.464.464 0 0 0-.557.556l.363 1.539c-.085.1-.168.2-.25.302l-1.579-.055a.462.462 0 0 0-.437.654l.654 1.436c-.063.115-.126.231-.187.35l-1.556.252a.462.462 0 0 0-.301.727l.92 1.279c-.04.126-.078.253-.115.38l-1.476.553a.462.462 0 0 0-.153.771l1.155 1.077c-.015.13-.028.26-.039.391l-1.343.832a.462.462 0 0 0 0 .786l1.343.831c.011.131.024.262.039.392l-1.155 1.077a.462.462 0 0 0 .153.771l1.476.552c.037.128.076.255.116.38l-.921 1.28a.462.462 0 0 0 .301.726l1.556.253c.061.118.123.235.188.35l-.655 1.435a.462.462 0 0 0 .437.654l1.579-.055c.082.103.165.203.25.303l-.363 1.539a.46.46 0 0 0 .557.555l1.538-.362c.1.085.201.167.303.249l-.055 1.58a.461.461 0 0 0 .654.436l1.435-.654c.115.064.232.127.35.188l.253 1.555a.461.461 0 0 0 .727.302l1.279-.922c.126.04.253.08.38.116l.552 1.476a.46.46 0 0 0 .771.153l1.078-1.155c.13.015.26.028.391.04l.832 1.343a.463.463 0 0 0 .786 0l.831-1.344c.131-.011.262-.024.392-.039l1.077 1.155a.46.46 0 0 0 .77-.153l.553-1.476c.127-.036.254-.076.38-.116l1.28.922a.463.463 0 0 0 .726-.302l.254-1.556c.117-.06.233-.124.349-.187l1.435.654a.461.461 0 0 0 .654-.437l-.055-1.58c.102-.08.203-.163.303-.248l1.538.362a.46.46 0 0 0 .556-.555l-.362-1.539c.084-.1.167-.2.249-.303l1.58.055a.46.46 0 0 0 .436-.654l-.654-1.435c.064-.115.126-.232.187-.35l1.556-.253a.46.46 0 0 0 .301-.726l-.92-1.28a17.5 17.5 0 0 0 .115-.38l1.476-.552a.46.46 0 0 0 .153-.771l-1.155-1.077c.014-.13.027-.261.039-.392l1.343-.831a.462.462 0 0 0 0-.786zM38.79 42.752a.952.952 0 0 1 .399-1.861.952.952 0 0 1-.4 1.861zm-.457-3.087a.866.866 0 0 0-1.028.666l-.477 2.226A11.649 11.649 0 0 1 32 43.597c-1.76 0-3.43-.39-4.929-1.087l-.477-2.225a.866.866 0 0 0-1.028-.667l-1.965.422a11.68 11.68 0 0 1-1.016-1.197h9.561c.108 0 .18-.02.18-.118v-3.382c0-.099-.072-.118-.18-.118H29.35V33.08h3.024c.276 0 1.476.079 1.86 1.613.12.471.384 2.006.564 2.497.18.551.912 1.652 1.692 1.652h4.764a.977.977 0 0 0 .173-.017c-.33.449-.693.874-1.083 1.27l-2.01-.431zm-13.223 3.04a.952.952 0 0 1-.399-1.861.95.95 0 0 1 .398 1.862zm-3.627-14.707a.95.95 0 1 1-1.737.771.95.95 0 1 1 1.737-.771zm-1.115 2.643 2.047-.91a.868.868 0 0 0 .44-1.145l-.421-.953h1.658v7.474h-3.345a11.714 11.714 0 0 1-.38-4.466zm8.983-.726v-2.203h3.948c.204 0 1.44.236 1.44 1.16 0 .767-.948 1.043-1.728 1.043h-3.66zM43.7 31.898c0 .292-.011.581-.033.868h-1.2c-.12 0-.168.08-.168.168v2.185c0 .423-.213.633-.618.633h-4.42c-.386 0-.609-.283-.609-.633v-2.185c0-.088-.039-.168-.168-.168h-1.2c-.021-.287-.033-.576-.033-.868 0-.292.011-.581.033-.868h1.2c.12 0 .168-.08.168-.168V24.3c0-.423.213-.633.618-.633h4.42c.386 0 .609.283.609.633v2.185c0 .088.039.168.168.168h1.2c.022.287.033.576.033.868zm-2.357 0c0 .202-.016.393-.048.574h-1.345c-.12 0-.168-.08-.168-.168V27.49c0-.424-.213-.633-.618-.633h-4.42c-.386 0-.609.283-.609.633v2.185c0 .088-.039.168-.168.168h-1.2a7.562 7.562 0 0 1-.049-.574c0-.292.011-.581.033-.868h1.2c.12 0 .168-.08.168-.168v-2.185c0-.423.213-.633.618-.633h4.42c.386 0 .609.283.609.633v2.185c0 .088.039.168.168.168h1.2c.022.287.033.576.033.868z"/>
  <animate attributeName="fill" values="black; #1f68d1; black" dur="2s" repeatCount="indefinite" />
</svg>
