<svg xmlns="http://www.w3.org/2000/svg" xmlns:xlink="http://www.w3.org/1999/xlink" viewBox="-2.2 0 402.1 311.7" width="400" height="309">
  <defs>
    <linearGradient id="a">
      <stop offset="0" stop-color="#00ffa3"/>
      <stop offset="1" stop-color="#dc1fff"/>
    </linearGradient>
    <linearGradient id="b" gradientUnits="userSpaceOnUse" x1="360.879" x2="141.213" y1="-37.455" y2="383.294" xlink:href="#a" gradientTransform="matrix(1 0 0 -1 0 314)"/>
    <linearGradient id="c" gradientUnits="userSpaceOnUse" x1="264.829" x2="45.163" y1="-87.601" y2="333.148" xlink:href="#a" gradientTransform="matrix(1 0 0 -1 0 314)"/>
    <linearGradient id="d" gradientUnits="userSpaceOnUse" x1="312.548" x2="92.882" y1="-62.688" y2="358.061" xlink:href="#a" gradientTransform="matrix(1 0 0 -1 0 314)"/>
  </defs>
  
  <path d="M64.6 237.9c2.4-2.4 5.7-3.8 9.2-3.8h317.4c5.8 0 8.7 7 4.6 11.1l-62.7 62.7c-2.4 2.4-5.7 3.8-9.2 3.8H6.5c-5.8 0-8.7-7-4.6-11.1l62.7-62.7z" fill="url(#b)">
    <animate attributeName="opacity" values="1;0.6;1" dur="3s" repeatCount="indefinite"/>
  </path>
  
  <path d="M64.6 3.8C67.1 1.4 70.4 0 73.8 0h317.4c5.8 0 8.7 7 4.6 11.1l-62.7 62.7c-2.4 2.4-5.7 3.8-9.2 3.8H6.5c-5.8 0-8.7-7-4.6-11.1L64.6 3.8z" fill="url(#c)">
    <animate attributeName="opacity" values="1;0.6;1" dur="3s" repeatCount="indefinite" begin="1s"/>
  </path>
  
  <path d="M333.1 120.1c-2.4-2.4-5.7-3.8-9.2-3.8H6.5c-5.8 0-8.7 7-4.6 11.1l62.7 62.7c2.4 2.4 5.7 3.8 9.2 3.8h317.4c5.8 0 8.7-7 4.6-11.1l-62.7-62.7z" fill="url(#d)">
    <animate attributeName="opacity" values="1;0.6;1" dur="3s" repeatCount="indefinite" begin="2s"/>
  </path>
</svg>